<?xml version="1.0" encoding="UTF-8"?>
<svg version="1.1" xmlns="http://www.w3.org/2000/svg" width="48" height="48">
<path d="M0 0 C15.84 0 31.68 0 48 0 C48 15.84 48 31.68 48 48 C32.16 48 16.32 48 0 48 C0 32.16 0 16.32 0 0 Z " fill="#2ECC40" transform="translate(0,0)"/>
<path d="M0 0 C0.33 0 0.66 0 1 0 C1.33 2.64 1.66 5.28 2 8 C2.99 8.33 3.98 8.66 5 9 C5.33 9.66 5.66 10.32 6 11 C8.62314702 10.49554865 10.39605255 9.77497014 12.75 8.4375 C16.70270424 6.68918851 19.74380189 6.34454549 24 7 C27.25 8.4375 27.25 8.4375 30 10 C32.23525035 10.68636625 32.23525035 10.68636625 34 11 C34.66 10.01 35.32 9.02 36 8 C36.66 8 37.32 8 38 8 C38.33 5.36 38.66 2.72 39 0 C39.33 0 39.66 0 40 0 C40.054138 2.24973447 40.09285491 4.49984383 40.125 6.75 C40.14820313 8.00296875 40.17140625 9.2559375 40.1953125 10.546875 C40.01537302 13.72820492 39.68998582 15.36521896 38 18 C37.34 18 36.68 18 36 18 C35.71125 18.928125 35.4225 19.85625 35.125 20.8125 C34 24 34 24 32 27 C25.80475297 29.88399431 20.29665387 31.23861195 13.6015625 29.30859375 C9.46661336 27.70947912 7.42673088 26.64656194 4.9375 22.875 C4 20 4 20 4 18 C3.34 18 2.68 18 2 18 C-0.37590142 14.29583874 -0.20500286 11.07015427 -0.125 6.75 C-0.10695312 5.48671875 -0.08890625 4.2234375 -0.0703125 2.921875 C-0.04710937 1.95765625 -0.02390625 0.9934375 0 0 Z " fill="#221713" transform="translate(4,15)"/>
<path d="M0 0 C2.10386938 0.25408844 2.10386938 0.25408844 4.875 -0.87890625 C6.68554127 -0.97288854 8.49952781 -1.00882612 10.3125 -1.00390625 C11.73369141 -1.00777344 11.73369141 -1.00777344 13.18359375 -1.01171875 C15.57640459 -0.893641 17.58836153 -0.5600326 19.875 0.12109375 C19.61725629 1.54020027 19.34316835 2.95634274 19.0625 4.37109375 C18.91167969 5.16 18.76085938 5.94890625 18.60546875 6.76171875 C17.75941707 9.49442044 16.89931377 11.09222072 14.875 13.12109375 C11.48356401 13.94205906 8.29319755 13.77111165 4.875 13.12109375 C1.45970896 10.2056014 0.37983503 7.53840024 -0.125 3.12109375 C-0.785 3.12109375 -1.445 3.12109375 -2.125 3.12109375 C-2.393125 4.21421875 -2.66125 5.30734375 -2.9375 6.43359375 C-4.4479057 11.12380092 -4.4479057 11.12380092 -7.125 13.12109375 C-9.5 13.5546875 -9.5 13.5546875 -12.125 13.55859375 C-13.424375 13.58759766 -13.424375 13.58759766 -14.75 13.6171875 C-17.125 13.12109375 -17.125 13.12109375 -18.86328125 11.390625 C-20.18627239 9.01087933 -20.8026473 7.03801555 -21.3125 4.37109375 C-21.47105469 3.571875 -21.62960938 2.77265625 -21.79296875 1.94921875 C-21.90253906 1.3459375 -22.01210938 0.74265625 -22.125 0.12109375 C-15.02565371 -1.96402894 -7.2245196 -1.07570972 0 0 Z " fill="#2F2F2F" transform="translate(25.125,3.87890625)"/>
<path d="M0 0 C2.5 1 2.5 1 4 2 C3.41018767 8.25201072 3.41018767 8.25201072 1.9375 10.9375 C-1.26134102 12.69170314 -4.45262657 12.64899971 -8 12 C-10.0625 10.4375 -10.0625 10.4375 -11 8 C-10.8125 4.3125 -10.8125 4.3125 -10 1 C-6.83013832 -0.58493084 -3.45967739 -0.2940042 0 0 Z " fill="#323232" transform="translate(17,4)"/>
<path d="M0 0 C2.10386938 0.25408844 2.10386938 0.25408844 4.875 -0.87890625 C6.68554127 -0.97288854 8.49952781 -1.00882612 10.3125 -1.00390625 C11.73369141 -1.00777344 11.73369141 -1.00777344 13.18359375 -1.01171875 C15.57640459 -0.893641 17.58836153 -0.5600326 19.875 0.12109375 C19.61725629 1.54020027 19.34316835 2.95634274 19.0625 4.37109375 C18.91167969 5.16 18.76085938 5.94890625 18.60546875 6.76171875 C17.75941707 9.49442044 16.89931377 11.09222072 14.875 13.12109375 C11.48356401 13.94205906 8.29319755 13.77111165 4.875 13.12109375 C1.45970896 10.2056014 0.37983503 7.53840024 -0.125 3.12109375 C-0.785 3.12109375 -1.445 3.12109375 -2.125 3.12109375 C-2.393125 4.21421875 -2.66125 5.30734375 -2.9375 6.43359375 C-4.4479057 11.12380092 -4.4479057 11.12380092 -7.125 13.12109375 C-9.5 13.5546875 -9.5 13.5546875 -12.125 13.55859375 C-13.424375 13.58759766 -13.424375 13.58759766 -14.75 13.6171875 C-17.125 13.12109375 -17.125 13.12109375 -18.86328125 11.390625 C-20.18627239 9.01087933 -20.8026473 7.03801555 -21.3125 4.37109375 C-21.47105469 3.571875 -21.62960938 2.77265625 -21.79296875 1.94921875 C-21.90253906 1.3459375 -22.01210938 0.74265625 -22.125 0.12109375 C-15.02565371 -1.96402894 -7.2245196 -1.07570972 0 0 Z M-18.1875 1.18359375 C-19.70799975 4.3259599 -18.90572633 6.81802083 -18.125 10.12109375 C-16.13385386 12.52778122 -16.13385386 12.52778122 -12.25 12.55859375 C-8.87074582 12.47257637 -8.30725775 12.28056929 -5.625 9.93359375 C-4.05037608 6.9811739 -3.74965935 5.40532446 -4.125 2.12109375 C-8.26755917 -0.64061236 -13.7155316 -1.12014755 -18.1875 1.18359375 Z M1.875 2.12109375 C2.27129124 6.76718233 2.27129124 6.76718233 3.9375 11.05859375 C7.13634102 12.81279689 10.32762657 12.77009346 13.875 12.12109375 C16.12963249 10.69826735 16.12963249 10.69826735 16.875 8.12109375 C16.80522926 4.46353981 16.80522926 4.46353981 15.875 1.12109375 C11.52565264 -1.05357993 5.88689446 -0.55350255 1.875 2.12109375 Z " fill="#000000" transform="translate(25.125,3.87890625)"/>
<path d="M0 0 C2.875 1.5625 2.875 1.5625 5 3 C4.6875 4.875 4.6875 4.875 4 7 C1 9 1 9 -2 9 C-2 8.34 -2 7.68 -2 7 C-3.32 7 -4.64 7 -6 7 C-6 7.66 -6 8.32 -6 9 C-10.75 8.25 -10.75 8.25 -13 6 C-13 4.0625 -13 4.0625 -12 2 C-7.69813011 -0.90126109 -4.96531497 -1.47902999 0 0 Z " fill="#2ECC40" transform="translate(28,27)"/>
</svg>
